# xmcd CD database file
#
# Track frame offsets:
#	165
#	17798
#	33586
#	52018
#	75037
#	87999
#	104597
#	119478
#	135305
#	155054
#	174101
#	191879
#	202783
#	222350
#	239084
#
# Disc length: 3510 seconds
#
# Revision: 0
# Processed by: cddbd v1.5.1PL2 Copyright (c) Steve Scherf et al.
# Submitted via: CDex 1.51
#
DISCID=cb0db40f
DTITLE=The Jim Mesi Band - Shut Up and Play
DYEAR=1900
DGENRE=Blues
TTITLE0=Memphis
TTITLE1=American Bandstand
TTITLE2=Pipeline
TTITLE3=Song for Christopher
TTITLE4=Walk -- Don't Run
TTITLE5=Hideaway
TTITLE6=Fessin' 'n' Fussin'
TTITLE7=Mr. Smarty Pants
TTITLE8=Sleepwalk
TTITLE9=San-Ho-Zay
TTITLE10=Mad House
TTITLE11=Misirlou
TTITLE12=Short -- Guy Shuffle
TTITLE13=Wham
TTITLE14=Alberta Street Blues
EXTD=
EXTT0=
EXTT1=
EXTT2=
EXTT3=
EXTT4=
EXTT5=
EXTT6=
EXTT7=
EXTT8=
EXTT9=
EXTT10=
EXTT11=
EXTT12=
EXTT13=
EXTT14=
PLAYORDER=
